<?xml version="1.0" encoding="UTF-8"?>
<svg version="1.1" xmlns="http://www.w3.org/2000/svg" width="512" height="512">
<path d="M0 0 C26.25858615 13.5171723 26.25858615 13.5171723 29 19 C27.97261719 19.21914063 26.94523437 19.43828125 25.88671875 19.6640625 C10.975919 23.00744487 -1.36002428 28.54451507 -9.9375 41.75 C-11.64553126 44.53576397 -12.96566697 46.89700092 -14 50 C-13.67 50.66 -13.34 51.32 -13 52 C-10.13832248 51.66333206 -9.18608986 51.22643102 -7.32421875 48.9609375 C-6.78410156 48.10757813 -6.24398437 47.25421875 -5.6875 46.375 C1.16939873 36.21984619 9.10697204 30.1427788 21.0625 26.625 C33.07608955 24.71808102 44.08677915 26.42761379 54.375 33.25 C65.50691962 41.77006146 72.41297166 53.49936136 74.51953125 67.4375 C75.30010612 76.92929038 74.31368293 84.78448324 72 94 C71.06800781 94.09796875 70.13601563 94.1959375 69.17578125 94.296875 C48.16697096 96.7610024 30.97028279 104.36008066 17.36328125 121.1484375 C7.2395141 134.89819575 2.43270459 150.98113759 3 168 C4.65 167.67 6.3 167.34 8 167 C8.15855469 165.70707031 8.31710937 164.41414062 8.48046875 163.08203125 C10.43153856 148.14972854 13.40643922 136.03226005 23 124 C23.57234375 123.24074219 24.1446875 122.48148438 24.734375 121.69921875 C33.95602363 110.29038423 47.60768189 103.27913542 62 101 C79.69664868 100.05033464 96.02117551 103.01492947 109.89624023 114.91210938 C122.33897208 126.21759169 130.95927969 141.156393 132.15234375 158.17285156 C132.49813543 166.33007727 132.25713195 174.0639388 130.40625 182.0390625 C129.76443975 185.13703119 129.89855587 187.01962175 131 190 C132.00683423 191.19685646 133.05449764 192.35973457 134.125 193.5 C144.9578659 205.15759025 148.98348675 221.46102943 149 237 C148.01736028 254.2408605 141.59063444 270.88534913 128.9140625 282.9921875 C115.21023131 294.26393943 100.51264666 299.09952703 83 300 C83 301.65 83 303.3 83 305 C99.71541115 306.13968712 116.48760071 301.1085691 129.3828125 290.2578125 C132.01555819 287.9315045 134.53344958 285.50244616 137 283 C140 284 140 284 141.28125 286.1171875 C149.84906683 305.50461917 151.45229174 324.43065515 143.75 344.375 C141.17899248 350.08403482 137.82540079 355.06206655 134 360 C133.36835938 360.8353125 132.73671875 361.670625 132.0859375 362.53125 C127.66575535 367.76262663 121.9647269 372.07473348 115.9375 375.3125 C112.72154312 376.72689105 112.72154312 376.72689105 112 380 C112.33154551 381.66702323 112.6653711 383.33359297 113 385 C114.44625261 404.49866793 111.16939721 422.42743756 98.19287109 437.76831055 C91.09472027 445.70884892 83.17978293 451.81141593 72.91308594 454.97021484 C63.08081427 458.03508614 59.8288004 462.43055448 55.01660156 471.27978516 C52.38458548 475.73348 48.62572108 479.35457391 45 483 C44.11828125 483.93392578 44.11828125 483.93392578 43.21875 484.88671875 C39.04567347 488.95912896 34.33915452 491.61775014 29.1875 494.25 C28.54804443 494.5795166 27.90858887 494.9090332 27.24975586 495.24853516 C18.02106117 499.75061828 8.91813212 501.54770274 -1.3125 501.4375 C-2.31651855 501.42920166 -3.32053711 501.42090332 -4.35498047 501.41235352 C-22.42741293 501.00340252 -37.93961308 493.443204 -51 481 C-59.74062774 471.6850682 -66.07545614 461.39628911 -70.3125 449.375 C-70.55508545 448.7142749 -70.7976709 448.0535498 -71.04760742 447.37280273 C-76.49708021 430.80863995 -75.30312004 412.20872449 -75.29076743 395.03268433 C-75.29035385 391.43357861 -75.30144827 387.83450348 -75.31088257 384.2354126 C-75.32737028 377.21199682 -75.33298628 370.18861464 -75.33410732 363.1651811 C-75.33506246 357.4553562 -75.33919571 351.74554225 -75.34550858 346.03572083 C-75.36307775 329.81281016 -75.37235277 313.58992578 -75.37084763 297.36700553 C-75.37076772 296.49565933 -75.3706878 295.62431313 -75.37060547 294.7265625 C-75.37052371 293.85414266 -75.37044195 292.98172282 -75.37035771 292.08286601 C-75.36954322 277.9160945 -75.38873306 263.74942889 -75.4168822 249.58268803 C-75.44562245 235.00264235 -75.45942227 220.42264836 -75.45769465 205.84257364 C-75.45703176 197.67004307 -75.4624816 189.49762396 -75.48405075 181.32511902 C-75.50227627 174.37586916 -75.50659767 167.42678146 -75.4930319 160.47751802 C-75.48651273 156.93587445 -75.48634729 153.39454193 -75.5037384 149.85292816 C-75.5224246 146.00805082 -75.50988952 142.16362519 -75.49447632 138.31872559 C-75.50476344 137.20841146 -75.51505057 136.09809733 -75.52564943 134.95413733 C-75.43408817 124.60206973 -72.32453766 115.51771227 -65 108 C-58.10195692 102.49356213 -52.9746598 100.94052859 -44.25 100.4375 C-43.55261719 100.39431641 -42.85523438 100.35113281 -42.13671875 100.30664062 C-40.42468078 100.20110404 -38.71236439 100.1001009 -37 100 C-36.505 98.02 -36.505 98.02 -36 96 C-42.86042659 92.67373256 -49.15978388 93.89749201 -56.21875 95.953125 C-63.00400203 98.50712436 -68.02660046 102.87589138 -73 108 C-73.66 108 -74.32 108 -75 108 C-75.13946459 95.82093541 -75.24585638 83.64206306 -75.31087303 71.46236038 C-75.34208938 65.80583595 -75.38438468 60.14986075 -75.45263672 54.49365234 C-75.51817536 49.02765307 -75.55377885 43.56217966 -75.56926346 38.09581757 C-75.58028807 36.0179187 -75.60181597 33.94004628 -75.63438034 31.86237335 C-75.84380955 17.93741606 -75.29055587 7.85191316 -65.625 -3 C-47.40374962 -19.60158368 -19.17332638 -9.55819012 0 0 Z M89 150 C86.15238926 152.84761074 86.23796115 156.04243491 85.6875 159.875 C83.2449647 174.96479276 76.84329582 188.84318548 64.98828125 198.86328125 C50.23514808 209.4122536 33.70844646 213.74246404 15.63671875 211.6015625 C1.70289577 209.17142803 -10.00596985 203.048791 -19.66796875 192.80859375 C-21.87971572 190.67404653 -21.87971572 190.67404653 -24.80078125 191.22265625 C-25.52652344 191.47917969 -26.25226563 191.73570312 -27 192 C-26.19933008 198.25388127 -22.65869911 201.06781828 -18 205 C-7.46459582 212.81295264 5.6292209 219.54574609 19 219 C19.14695312 219.72703125 19.29390625 220.4540625 19.4453125 221.203125 C22.99110223 237.09804448 30.6441955 249.52046701 44.41015625 258.53515625 C52.47070955 263.09429273 61.73334605 265.65776562 71 266 C71.99 265.34 72.98 264.68 74 264 C73.67 262.35 73.34 260.7 73 259 C71.91203125 258.78085937 70.8240625 258.56171875 69.703125 258.3359375 C56.87345107 255.62123589 43.26094511 251.94632678 35.3515625 240.64453125 C31.46546355 234.37938148 28.34881834 228.28856881 27 221 C28.258125 220.8040625 29.51625 220.608125 30.8125 220.40625 C45.76088784 217.8737689 59.48806021 213.3279985 71 203 C72.08474609 202.05253906 72.08474609 202.05253906 73.19140625 201.0859375 C86.6288026 188.58074631 92.92167542 172.51144745 94.15234375 154.4765625 C94.26347402 151.82190223 94.26347402 151.82190223 92 150 C91.01 150 90.02 150 89 150 Z M-43.625 286.5 C-44.07875 286.995 -44.5325 287.49 -45 288 C-44.61971291 290.02664835 -44.61971291 290.02664835 -43 292 C-40.0940523 292.92271329 -37.34438209 293.62343579 -34.375 294.25 C-18.85981159 297.97270499 -6.94640325 304.36630344 4 316 C4.68707031 316.72960937 5.37414062 317.45921875 6.08203125 318.2109375 C17.36399048 331.43467185 20.19031213 349.19199655 21 366 C20.42894531 366.13535156 19.85789062 366.27070313 19.26953125 366.41015625 C2.85928723 370.76708908 -11.00416514 380.59638831 -19.60546875 395.30859375 C-25.95369542 407.56049339 -27.32388699 418.34276508 -27 432 C-25.35 432.33 -23.7 432.66 -22 433 C-19.5020904 429.2531356 -19.52013798 425.97932978 -19.1875 421.625 C-17.81557379 407.41008342 -12.96265939 395.41229911 -2.34375 385.52734375 C10.18664861 375.43902552 25.37816426 370.95876221 41.25 369.4375 C45.0232895 369.39031255 45.0232895 369.39031255 47 367 C46.67958603 364.39719432 46.67958603 364.39719432 46 362 C39.59646678 361.7638041 34.15370839 362.176679 28 364 C28.04640625 363.40316406 28.0928125 362.80632812 28.140625 362.19140625 C28.89112341 344.15264093 22.09824318 326.93372247 11 313 C10.52949219 312.36449219 10.05898438 311.72898437 9.57421875 311.07421875 C-2.17448856 295.99844388 -21.81428752 288.485786 -40 285 C-42.12364481 284.77390663 -42.12364481 284.77390663 -43.625 286.5 Z " fill="#155DFC" transform="translate(334,11)"/>
<path d="M0 0 C0.8559375 -0.02900391 1.711875 -0.05800781 2.59375 -0.08789062 C11.8776115 -0.17932259 18.70454313 3.12119862 25.45703125 9.375 C29.95921944 14.24010968 33.37899978 19.59566843 33.37025452 26.35575867 C33.37231651 27.58620407 33.37231651 27.58620407 33.37442017 28.84150696 C33.37082489 29.73774277 33.36722961 30.63397858 33.36352539 31.55737305 C33.36367142 32.50390747 33.36381744 33.45044189 33.3639679 34.42565918 C33.36327047 37.55853557 33.35548599 40.69135273 33.34765625 43.82421875 C33.34579147 45.9946947 33.34436785 48.16517106 33.34336853 50.33564758 C33.33954811 56.05177978 33.32972184 61.76788662 33.31866455 67.48400879 C33.30844024 73.31550758 33.30386872 79.14701046 33.29882812 84.97851562 C33.28809918 96.42318823 33.27102842 107.86784201 33.25 119.3125 C32.77432587 118.90058411 32.29865173 118.48866821 31.80856323 118.06427002 C31.1819278 117.52389099 30.55529236 116.98351196 29.90966797 116.42675781 C29.28961884 115.89109192 28.6695697 115.35542603 28.0307312 114.80352783 C19.84922531 107.95305372 10.95881781 104.48874478 0.25 105.3125 C-2.58378132 106.2099827 -2.58378132 106.2099827 -4.75 107.3125 C-4.42 108.6325 -4.09 109.9525 -3.75 111.3125 C-2.77160156 111.33828125 -1.79320312 111.3640625 -0.78515625 111.390625 C9.65979023 111.84252042 17.74082196 113.30851485 25.6796875 120.52734375 C28.51544674 123.75108 30.38914817 127.46776482 32.25 131.3125 C32.58 131.9725 32.91 132.6325 33.25 133.3125 C33.34753715 135.00161864 33.38099612 136.69459296 33.38422108 138.38652229 C33.38867892 139.46745663 33.39313676 140.54839096 33.39772969 141.66208088 C33.39754533 142.85931715 33.39736097 144.05655342 33.39717102 145.29006958 C33.40084771 146.55455771 33.4045244 147.81904585 33.4083125 149.1218518 C33.41834937 152.64373588 33.42205205 156.16560292 33.42470181 159.68749928 C33.42860028 163.48195069 33.43817943 167.27638853 33.44691467 171.0708313 C33.46669973 180.24479431 33.47675126 189.41875847 33.48564246 198.5927375 C33.49002503 202.91516715 33.4953922 207.23759558 33.50063133 211.56002426 C33.51765131 225.93568479 33.53214204 240.31134456 33.53938007 254.68701363 C33.54128994 258.4197604 33.54321027 262.15250716 33.54516602 265.88525391 C33.54564976 266.81299775 33.5461335 267.74074158 33.5466319 268.69659887 C33.55491914 283.70097543 33.58023047 298.70527192 33.61274669 313.70961358 C33.64587624 329.1231249 33.66383445 344.53659564 33.66702431 359.95014274 C33.66918477 368.60041948 33.67786427 377.25057973 33.70348549 385.90082169 C33.72527376 393.2740796 33.73320348 400.64719276 33.72351871 408.02047922 C33.71899638 411.77743282 33.7207379 415.53408831 33.74028015 419.29100037 C33.86364327 444.422555 31.71339862 466.08603884 15.25 486.3125 C14.64542969 487.09238281 14.04085937 487.87226563 13.41796875 488.67578125 C2.85328498 501.55357472 -13.96561587 510.82655772 -30.56738281 512.61621094 C-33.40634624 512.74809432 -36.22070543 512.78084978 -39.0625 512.75 C-40.06724365 512.74097656 -41.0719873 512.73195313 -42.10717773 512.72265625 C-60.6559815 512.29271215 -75.82314865 504.44897597 -88.75 491.3125 C-89.68392578 490.37664062 -89.68392578 490.37664062 -90.63671875 489.421875 C-93.39367118 486.47286521 -95.52972831 483.73839348 -97.39453125 480.1328125 C-101.09418741 473.02366929 -103.90131698 469.47617047 -111.4375 467.0625 C-112.1289209 466.84891846 -112.8203418 466.63533691 -113.53271484 466.4152832 C-128.38873623 461.79198987 -139.36521014 450.70734557 -146.75 437.3125 C-151.66118642 427.0495458 -154.09040675 418.01869502 -153.9375 406.6875 C-153.93685547 405.77226562 -153.93621094 404.85703125 -153.93554688 403.9140625 C-153.9106614 400.08722975 -153.81101419 396.6145032 -153.05078125 392.8515625 C-152.47040786 390.33185319 -152.47040786 390.33185319 -153.8828125 388.65234375 C-154.80707031 387.98912109 -154.80707031 387.98912109 -155.75 387.3125 C-156.51054687 386.75691406 -157.27109375 386.20132812 -158.0546875 385.62890625 C-158.90289062 385.05011719 -159.75109375 384.47132813 -160.625 383.875 C-174.58211863 374.33550148 -184.35334153 360.90339208 -188.25 344.26953125 C-191.15926777 327.06393986 -189.69469924 309.22954885 -179.75 294.3125 C-176.51926869 295.73086984 -174.43410917 297.46551222 -171.9375 299.9375 C-159.62366932 311.0038511 -143.15691499 317.13513768 -126.59375 316.453125 C-125.9853125 316.40671875 -125.376875 316.3603125 -124.75 316.3125 C-124.15929986 314.36646726 -124.15929986 314.36646726 -123.75 312.3125 C-125.5011883 310.5613117 -127.87153921 310.97387448 -130.22216797 310.76879883 C-143.8028164 309.53882585 -154.58880302 305.21603418 -165.75 297.3125 C-167.296875 296.2296875 -167.296875 296.2296875 -168.875 295.125 C-181.6659137 283.81709079 -188.33294968 267.1372446 -189.5625 250.4375 C-190.47610256 233.63670494 -185.63174326 218.87743848 -175.75 205.3125 C-174.76275147 204.23814131 -173.76467354 203.17349599 -172.75 202.125 C-170.61664135 199.1249644 -170.47570755 198.73224659 -170.875 195.3125 C-171.14802691 193.97522534 -171.44202692 192.64216154 -171.75 191.3125 C-175.18656191 174.02935289 -172.66679055 156.74928038 -163.859375 141.44921875 C-154.25048706 127.16044649 -141.22442083 117.63188533 -124.5625 113 C-107.29020448 109.73396594 -90.63509377 113.35419933 -76.08984375 123.09375 C-61.49349198 134.10305397 -52.79572936 149.36331918 -50.12890625 167.3359375 C-49.61821516 170.98891599 -49.17035591 174.64798552 -48.75 178.3125 C-47.1 178.6425 -45.45 178.9725 -43.75 179.3125 C-42.67664619 159.27656212 -50.19631891 141.92259689 -62.875 126.7734375 C-76.29058456 112.4207349 -93.76996844 106.96400924 -112.75 105.3125 C-116.98186235 88.45677707 -116.65186133 72.97492222 -107.625 57.625 C-100.33428916 46.89790316 -90.59190658 39.86069757 -77.75 37.3125 C-65.16653481 36.14060477 -53.57123565 39.28571408 -43.75 47.3125 C-38.3439804 51.94941578 -34.48570768 57.27789528 -30.75 63.3125 C-29.43 62.9825 -28.11 62.6525 -26.75 62.3125 C-30.37867732 50.0002715 -39.11043098 42.21076 -49.99609375 36.0390625 C-56.23618888 32.99343809 -62.98288547 31.69311687 -69.75 30.3125 C-64.45048815 24.71428839 -58.3740149 21.09696383 -51.75 17.3125 C-51.03440918 16.90273926 -50.31881836 16.49297852 -49.58154297 16.07080078 C-33.99448772 7.25432034 -18.13988562 0.20125613 0 0 Z M-132.75 161.3125 C-135.03323548 163.14618879 -135.03323548 163.14618879 -134.8671875 165.89453125 C-133.42711603 185.10322647 -126.28731927 199.95408803 -112.75 213.3125 C-112.12996094 213.93125 -111.50992188 214.55 -110.87109375 215.1875 C-98.97151325 226.19819617 -83.21736947 229.75077758 -67.75 232.3125 C-71.79984885 246.17727664 -77.26389205 256.7076192 -90.125 264 C-97.51173961 267.50753988 -105.77539613 268.75753911 -113.75 270.3125 C-114.08 271.9625 -114.41 273.6125 -114.75 275.3125 C-112.02795505 277.19119098 -110.75028346 277.31252706 -107.39453125 276.9921875 C-92.02791372 273.76535446 -78.17501796 267.98694442 -68.90234375 254.65625 C-64.54855863 247.6310341 -59.75 238.80835709 -59.75 230.3125 C-58.74453125 230.35632813 -57.7390625 230.40015625 -56.703125 230.4453125 C-40.43436114 229.89873348 -25.54643562 219.78479596 -14.75 208.3125 C-13.42720804 206.13493299 -13.42720804 206.13493299 -12.75 204.3125 C-13.74 203.3225 -14.73 202.3325 -15.75 201.3125 C-19.21461362 202.79510493 -21.3538045 204.78205207 -24 207.4375 C-36.44302121 218.78260757 -52.70918669 224.05079011 -69.453125 223.6015625 C-78.67479227 222.79302769 -87.60472828 220.78158714 -95.75 216.3125 C-96.63300781 215.83039063 -97.51601562 215.34828125 -98.42578125 214.8515625 C-112.06430063 206.81558843 -120.28243001 194.59110134 -124.87890625 179.640625 C-125.94725816 175.16077254 -126.73001193 170.6909549 -127.3125 166.125 C-127.48701563 163.18213998 -127.48701563 163.18213998 -129.75 161.3125 C-130.74 161.3125 -131.73 161.3125 -132.75 161.3125 Z M-46.75 318.3125 C-59.45546123 331.17878985 -68.24979277 348.98615057 -68.84765625 367.3046875 C-68.83605469 368.25601563 -68.82445312 369.20734375 -68.8125 370.1875 C-68.80347656 371.15429688 -68.79445313 372.12109375 -68.78515625 373.1171875 C-68.77355469 373.84164062 -68.76195312 374.56609375 -68.75 375.3125 C-69.86375 374.9825 -70.9775 374.6525 -72.125 374.3125 C-77.01454223 373.06820789 -81.73577615 373.12754912 -86.75 373.3125 C-87.42958603 375.70969432 -87.42958603 375.70969432 -87.75 378.3125 C-84.98856963 381.07393037 -82.9885208 380.75491538 -79.125 381.125 C-61.94362818 383.08984084 -44.41316917 389.33333502 -32.7421875 402.59375 C-25.28480971 412.53692038 -22.31290202 423.10227142 -21.3815918 435.30859375 C-21.08741056 439.06753045 -20.88420353 441.11119471 -18.75 444.3125 C-17.1 443.9825 -15.45 443.6525 -13.75 443.3125 C-12.84883936 425.6647709 -16.61453155 410.45931676 -28.25 396.6875 C-36.89330508 387.60294511 -47.88213144 381.2750937 -59.75 377.3125 C-60.41 377.3125 -61.07 377.3125 -61.75 377.3125 C-60.10793977 354.76480735 -55.14612659 335.06248723 -37.41210938 319.65380859 C-27.12473517 311.35198223 -14.32025979 306.66551746 -1.4375 304.25 C2.31204566 303.75832214 2.31204566 303.75832214 3.48046875 301.25390625 C3.73441406 300.61324219 3.98835938 299.97257812 4.25 299.3125 C2.87514468 297.77083358 2.87514468 297.77083358 1.25 296.3125 C-15.91338807 296.3125 -34.48837266 307.07947789 -46.75 318.3125 Z " fill="#155DFC" transform="translate(218.75,-0.3125)"/>
</svg>
