<?xml version="1.0" encoding="UTF-8"?>
<svg version="1.1" xmlns="http://www.w3.org/2000/svg" width="311" height="311">
<path d="M0 0 C102.63 0 205.26 0 311 0 C311 102.63 311 205.26 311 311 C208.37 311 105.74 311 0 311 C0 208.37 0 105.74 0 0 Z " fill="#175EFC" transform="translate(0,0)"/>
<path d="M0 0 C8.28389665 4.61986544 8.28389665 4.61986544 10.1484375 8.8515625 C11.58542495 11.40960398 12.84077129 11.75736953 15.5625 12.75 C19.85055631 14.49008082 22.23889882 16.33091426 25.25 19.8125 C25.58 20.1425 25.91 20.4725 26.25 20.8125 C26.32929927 23.08280877 26.38838115 25.35383783 26.4375 27.625 C26.61033257 31.41844441 26.61033257 31.41844441 27.25 34.8125 C29.91666667 37.3125 29.91666667 37.3125 33.25 38.8125 C37.72991733 44.55202274 39.39896876 49.3973895 39.4375 56.6875 C39.45167969 57.90179688 39.46585938 59.11609375 39.48046875 60.3671875 C39.25896708 63.67844979 38.56632317 65.81213586 37.25 68.8125 C37.52206865 70.4902567 37.86500109 72.15700469 38.25 73.8125 C38.76840681 80.13706305 38.00907071 84.58914012 34.25 89.8125 C32.50755246 91.388623 30.68935286 92.81105759 28.8359375 94.25390625 C27.01737508 96.04111414 26.5291481 97.32549572 25.8125 99.75 C24.17895941 104.90802816 20.8185238 108.02855581 16.25 110.8125 C13.9375 111.33984375 13.9375 111.33984375 11.625 111.625 C8.43266258 112.09753187 7.53027982 112.45826608 5.48828125 115.0390625 C4.48291021 116.7965625 3.52826182 118.58445263 2.63671875 120.40234375 C0.51229786 124.0946471 -1.75779867 125.48176622 -5.75 126.8125 C-7.41458673 126.90558544 -9.08281997 126.94246185 -10.75 126.9375 C-11.61625 126.94007813 -12.4825 126.94265625 -13.375 126.9453125 C-15.75 126.8125 -15.75 126.8125 -18.75 125.8125 C-16.85277955 134.23548788 -16.85277955 134.23548788 -11.75 140.8125 C-1.53687516 143.02534372 8.30133639 135.9884218 16.59765625 130.6640625 C31.53323414 119.98753327 41.40809631 105.68889033 47.59375 88.53515625 C48.25 86.8125 48.25 86.8125 49.25 85.8125 C51.75 85.6875 51.75 85.6875 54.25 85.8125 C54.58 86.1425 54.91 86.4725 55.25 86.8125 C54.88390279 92.80080428 53.50878613 97.27329539 50.75 102.5625 C50.39325195 103.25569336 50.03650391 103.94888672 49.66894531 104.66308594 C37.80559462 127.05787066 19.76585446 141.4351452 -3.75 149.8125 C-4.61753906 150.14121094 -5.48507813 150.46992188 -6.37890625 150.80859375 C-26.47337714 158.11249708 -51.04157903 154.78340559 -70.10009766 146.10717773 C-78.45795192 142.05320526 -85.70521615 136.82950377 -92.75 130.8125 C-93.41257812 130.25175781 -94.07515625 129.69101563 -94.7578125 129.11328125 C-103.40288656 121.13166636 -116.37468471 104.91441484 -116.9296875 92.93359375 C-116.87039062 91.90363281 -116.81109375 90.87367188 -116.75 89.8125 C-114.275 89.3175 -114.275 89.3175 -111.75 88.8125 C-108.88066152 92.92937694 -106.62706367 96.99860611 -104.5 101.5625 C-101.34865971 108.04789172 -97.60761184 113.44962561 -92.75 118.8125 C-92.02296875 119.64394531 -91.2959375 120.47539062 -90.546875 121.33203125 C-77.86512404 135.0006072 -58.41671017 144.53976976 -39.75 145.8125 C-33.08201902 145.99772169 -26.41852917 145.9311102 -19.75 145.8125 C-20.14832031 145.12027344 -20.54664063 144.42804688 -20.95703125 143.71484375 C-29.42049312 128.08523897 -29.21413697 112.25220855 -29.18359375 94.87890625 C-29.18816391 92.5878026 -29.19347195 90.29670031 -29.19947815 88.00559998 C-29.20835955 83.2325987 -29.20603935 78.45976525 -29.19604492 73.68676758 C-29.1845037 67.58166763 -29.20487109 61.47714168 -29.23396206 55.37211704 C-29.25232318 50.65283055 -29.25203271 45.93368207 -29.24632454 41.21436882 C-29.24617163 38.96298346 -29.2521911 36.71158858 -29.26461601 34.4602375 C-29.27953927 31.31630512 -29.268842 28.17344058 -29.25170898 25.02954102 C-29.26137695 24.10939209 -29.27104492 23.18924316 -29.28100586 22.24121094 C-29.20262289 15.35157698 -27.57264227 10.01892257 -22.96875 4.7890625 C-22.11796875 4.12003906 -22.11796875 4.12003906 -21.25 3.4375 C-20.39921875 2.74527344 -20.39921875 2.74527344 -19.53125 2.0390625 C-13.30580526 -2.2477569 -7.12723452 -2.2569576 0 0 Z " fill="#F0F4FE" transform="translate(187.75,99.1875)"/>
<path d="M0 0 C-0.875 4.875 -0.875 4.875 -2 6 C-4.18639453 6.07258946 -6.37500389 6.08373783 -8.5625 6.0625 C-10.35880859 6.04896484 -10.35880859 6.04896484 -12.19140625 6.03515625 C-13.11824219 6.02355469 -14.04507813 6.01195313 -15 6 C-13.97464857 8.63598929 -12.94855977 11.0916978 -11.5625 13.5625 C-7.63499358 22.20301413 -6.55286752 31.02517916 -6.59594727 40.42480469 C-6.58908401 41.496353 -6.58222076 42.56790131 -6.57514954 43.67192078 C-6.55702368 47.17204477 -6.56069678 50.67171472 -6.56640625 54.171875 C-6.56183953 56.62420801 -6.5565325 59.07653974 -6.55052185 61.52886963 C-6.54162013 66.64934516 -6.54398264 71.76966445 -6.55395508 76.89013672 C-6.56547511 83.44258893 -6.54517123 89.99450465 -6.51603794 96.54688644 C-6.49767737 101.60330611 -6.4979676 106.65959693 -6.50367546 111.71604156 C-6.50382851 114.13210048 -6.497798 116.54816822 -6.48538399 118.96419525 C-6.47046902 122.34073004 -6.48115383 125.71626933 -6.49829102 129.09277344 C-6.48862305 130.08309067 -6.47895508 131.0734079 -6.46899414 132.09373474 C-6.53391977 138.21798693 -7.47856373 142.89852322 -11 148 C-16.33305665 153.07290755 -20.94035043 153.35920868 -28.05078125 153.2734375 C-32.09326049 152.8986381 -34.09908599 151.82839116 -37 149 C-39.32851729 145.77815218 -41 143.08328736 -41 139 C-41.99 139.103125 -42.98 139.20625 -44 139.3125 C-48.9406953 139.27257519 -52.3435507 137.20585656 -56 134 C-59.56191752 129.74989884 -62 126.64506743 -62 121 C-62.721875 120.79375 -63.44375 120.5875 -64.1875 120.375 C-67.98456 118.51865956 -69.4981308 116.40532197 -72 113 C-73.54621988 108.36134037 -72.96167441 103.71310846 -72.83984375 98.859375 C-73.003726 94.91021242 -73.84930271 91.76392205 -75 88 C-76.07979337 80.03226153 -74.71947741 73.56979361 -70 67 C-68.14453125 65.46484375 -68.14453125 65.46484375 -66.25 64.125 C-63.67817579 62.18921833 -63.0759285 61.40607684 -62.47265625 58.1796875 C-62.36626288 56.06738988 -62.28146581 53.95388905 -62.21875 51.83984375 C-61.80416892 46.45769296 -58.86390822 43.826347 -55.125 40.25 C-52 38 -52 38 -49.0625 37.1875 C-45.69502457 35.88174422 -44.75738109 34.79120242 -42.5 32.0625 C-38.91320958 27.76614886 -36.16681542 25.33185191 -30.390625 24.7265625 C-24.63961298 24.52449992 -21.10490083 25.16227571 -16 28 C-16.54040747 25.91082701 -17.10828902 23.8287493 -17.6875 21.75 C-18.00074219 20.58984375 -18.31398438 19.4296875 -18.63671875 18.234375 C-20.23212083 14.449295 -21.4319735 13.01605973 -25 11 C-30.83276777 10.17848341 -34.73442275 11.84038156 -39.75 14.5 C-40.44810791 14.8616626 -41.14621582 15.2233252 -41.86547852 15.59594727 C-60.57940545 25.52864109 -74.83940132 40.91861624 -82 61 C-84.68054553 69.79582399 -86.42535986 78.19276174 -86.7265625 87.42578125 C-87 90 -87 90 -89 93 C-90.32 93 -91.64 93 -93 93 C-97.20416431 84.59167139 -93.70420136 69.22836115 -90.96484375 60.82421875 C-83.43846839 40.2295389 -69.69339183 22.63072386 -51 11 C-50.32839844 10.56816406 -49.65679687 10.13632813 -48.96484375 9.69140625 C-45.62216162 7.64037624 -44.0274324 7 -40 7 C-40 6.34 -40 5.68 -40 5 C-10.91370558 -5.45685279 -10.91370558 -5.45685279 0 0 Z " fill="#F0F4FE" transform="translate(160,73)"/>
<path d="M0 0 C5.02752029 2.42065792 7.07387779 4.8190104 9 10 C9.35846761 14.13270371 9.28268317 18.23087106 9.1875 22.375 C9.16719727 24.05142578 9.16719727 24.05142578 9.14648438 25.76171875 C9.11127537 28.50802088 9.05747288 31.25407357 9 34 C5.04 34 1.08 34 -3 34 C-3 34.66 -3 35.32 -3 36 C-1.9171875 36.1546875 -1.9171875 36.1546875 -0.8125 36.3125 C2.94965434 37.23213773 6.01757269 38.4316749 8.13232422 41.80761719 C9.11669259 44.29485072 9.22951628 46.0977301 9.1953125 48.765625 C9.18886719 49.65507812 9.18242187 50.54453125 9.17578125 51.4609375 C9.15902344 52.38132813 9.14226562 53.30171875 9.125 54.25 C9.11597656 55.18585938 9.10695312 56.12171875 9.09765625 57.0859375 C9.07413636 59.39088657 9.04126853 61.6953116 9 64 C4.25 63.125 4.25 63.125 2 62 C-1.59748668 61.76754701 -5.1884991 61.60499713 -8.79101562 61.48242188 C-12.6486236 61.30632091 -14.72287807 61.18474795 -18 59 C-15.71229174 62.60685431 -14.40692687 63.86606928 -10.28515625 65.22265625 C-8.88156395 65.52182569 -7.47366325 65.80136405 -6.0625 66.0625 C-0.81611846 67.06753551 3.12172539 68.10744077 7 72 C10.16828255 76.91769225 9.37198699 82.71742332 9.37060547 88.36230469 C9.37497051 90.3614951 9.4119853 92.36052657 9.44921875 94.359375 C9.45501953 96.26589844 9.45501953 96.26589844 9.4609375 98.2109375 C9.46915527 99.36899902 9.47737305 100.52706055 9.48583984 101.72021484 C8.81052401 106.27910575 6.80821014 109.56590231 3.1875 112.4375 C-0.1701584 113.30089787 -2.65961443 112.83509639 -6 112 C-8.3181362 110.10888889 -9.66914015 108.66171969 -11 106 C-11.53653103 100.03109225 -10.13024266 96.23666461 -7.5 91.0625 C-7.16613281 90.37865234 -6.83226562 89.69480469 -6.48828125 88.99023438 C-5.67106961 87.32078773 -4.8372253 85.65950015 -4 84 C-8.53393308 86.97011993 -11.97361929 89.495873 -14.5 94.375 C-16.44679127 97.80161572 -16.44679127 97.80161572 -18.90625 98.68359375 C-22.94208817 98.93206886 -24.63961718 98.28203873 -27.875 95.75 C-32.03418803 90.36752137 -32.03418803 90.36752137 -31.9375 86.5 C-30.70581596 83.21550922 -28.83967467 81.96592862 -26 80 C-26.81984375 80.13019531 -27.6396875 80.26039063 -28.484375 80.39453125 C-37.31603964 81.52489981 -37.31603964 81.52489981 -40.6875 78.9375 C-42 76 -42 76 -43 70 C-39.04 68.02 -35.08 66.04 -31 64 C-32.2375 63.938125 -33.475 63.87625 -34.75 63.8125 C-38.17484748 63.39424429 -38.83752618 63.15830782 -41.4375 60.625 C-44.59860435 55.3143447 -44.74836619 50.03627234 -44 44 C-42.14867088 39.55395093 -40.00662275 36.67108183 -36 34 C-30.89008377 33.08588261 -27.18828219 35.76420803 -22.9375 38.25 C-22.23044922 38.64574219 -21.52339844 39.04148438 -20.79492188 39.44921875 C-17.03054666 41.60533976 -13.90367896 43.71167785 -11 47 C-11.33179947 43.12900617 -12.42894332 41.02769305 -15.2734375 38.3828125 C-17.45861238 36.63269506 -19.74911485 35.07637749 -22.0625 33.5 C-27.05729675 30.05121177 -30.22466644 27.50843211 -32.0625 21.5625 C-31.99993238 17.99614561 -31.88585068 17.25209207 -29.875 14.5625 C-27 12 -27 12 -24.1875 11.625 C-23.465625 11.74875 -22.74375 11.8725 -22 12 C-21.608125 13.093125 -21.21625 14.18625 -20.8125 15.3125 C-19.2974477 18.91074922 -17.60153162 20.34524223 -14 22 C-14.495 21.195625 -14.99 20.39125 -15.5 19.5625 C-17.33765925 15.19805928 -17.78446713 11.67232069 -17 7 C-12.95829015 0.21570133 -7.46825528 -1.03725768 0 0 Z " fill="#1A61FC" transform="translate(137,106)"/>
<path d="M0 0 C3.49483188 0.78302658 5.72293003 2.14790265 8.37109375 4.53125 C10.93813264 8.74789807 10.94455489 12.71916307 10.37109375 17.53125 C8.87109375 21.09375 8.87109375 21.09375 7.37109375 23.53125 C11.76401161 20.21215651 14.19388025 17.73237114 16.37109375 12.53125 C19.38908869 12.86658277 21.17991188 13.39690598 23.68359375 15.15625 C26.09141265 18.54503216 25.99420799 20.44638995 25.37109375 24.53125 C22.16151245 30.72906216 17.87216778 33.29148557 11.9765625 36.83203125 C8.572548 39.05204071 6.59986157 41.14967125 4.37109375 44.53125 C4.37109375 45.52125 4.37109375 46.51125 4.37109375 47.53125 C5.70140625 46.2628125 5.70140625 46.2628125 7.05859375 44.96875 C12.87763008 40.01486571 20.2476266 34.38012817 28.1015625 34.66796875 C32.5187223 35.83426781 33.85548154 37.793769 36.37109375 41.53125 C38.55281536 45.5830187 38.76497741 48.96219953 38.37109375 53.53125 C35.56492635 61.54887115 35.56492635 61.54887115 32.37109375 63.53125 C29.69024219 64.06848414 27.10686774 64.30700623 24.37109375 64.53125 C30.00844446 67.9677367 30.00844446 67.9677367 36.37109375 69.53125 C36.60277794 72.85205666 36.49167293 75.21206981 35.30859375 78.34375 C33.37109375 80.53125 33.37109375 80.53125 30.12109375 81.40625 C26.38729046 81.53071011 23.03992833 81.20511758 19.37109375 80.53125 C20.36109375 81.211875 21.35109375 81.8925 22.37109375 82.59375 C24.03515625 83.953125 24.03515625 83.953125 25.37109375 85.53125 C25.74609375 89.34375 25.74609375 89.34375 25.37109375 92.53125 C24.71109375 92.53125 24.05109375 92.53125 23.37109375 92.53125 C23.10296875 93.15 22.83484375 93.76875 22.55859375 94.40625 C21.37109375 96.53125 21.37109375 96.53125 18.37109375 98.53125 C13.23065382 99.36035321 13.23065382 99.36035321 10.37109375 98.53125 C8.76166618 96.74047848 7.77847736 94.91088941 6.66796875 92.77734375 C4.54418591 89.0991054 1.47195201 86.39083111 -1.62890625 83.53125 C-1.10566022 87.71721821 0.46168158 90.90531931 2.43359375 94.56640625 C4.45935819 98.81207089 4.86346692 102.85370488 4.37109375 107.53125 C1.77115541 111.15540648 0.13159445 112.33111824 -4.19140625 113.46875 C-9.05055407 113.55709814 -9.05055407 113.55709814 -11.62890625 111.53125 C-15.77006888 105.91009523 -15.15132921 99.90960856 -15.12988281 93.23901367 C-15.12891029 91.10263284 -15.17056696 88.9698474 -15.21484375 86.83398438 C-15.31483126 75.43072226 -15.31483126 75.43072226 -12.265625 71.66796875 C-7.08334035 67.46839882 -2.38469681 66.11274907 4.1015625 65.15625 C6.69673558 64.44157239 7.57271073 63.46573211 9.37109375 61.53125 C6.49533507 61.64579804 3.62097263 61.7725347 0.74609375 61.90625 C-0.06214844 61.9371875 -0.87039062 61.968125 -1.703125 62 C-6.34728939 62.2265446 -10.25584481 62.7905168 -14.62890625 64.53125 C-14.80370578 60.96937343 -14.90991768 57.40860227 -15.00390625 53.84375 C-15.05417969 52.83634766 -15.10445312 51.82894531 -15.15625 50.79101562 C-15.30080311 43.49108381 -15.30080311 43.49108381 -13.38525391 40.75463867 C-10.17906369 37.99899153 -6.67910033 36.59201512 -2.62890625 35.53125 C-4.06616496 35.36251522 -5.50372463 35.19634263 -6.94140625 35.03125 C-8.14216797 34.89203125 -8.14216797 34.89203125 -9.3671875 34.75 C-11.7478718 34.48311537 -11.7478718 34.48311537 -14.62890625 34.53125 C-14.83369223 30.36531801 -14.95703652 26.20069207 -15.06640625 22.03125 C-15.12505859 20.85820313 -15.18371094 19.68515625 -15.24414062 18.4765625 C-15.38565006 11.27979689 -14.69050825 7.14615239 -9.63916016 1.87988281 C-6.5066003 -0.22167908 -3.68707632 -0.31427135 0 0 Z " fill="#195FFC" transform="translate(181.62890625,105.46875)"/>
<path d="M0 0 C2.5625 0.1875 2.5625 0.1875 4.5625 2.1875 C4.89379883 4.10083008 4.89379883 4.10083008 5.01953125 6.45703125 C5.07713623 7.33544678 5.13474121 8.2138623 5.1940918 9.11889648 C5.28364136 10.54504272 5.28364136 10.54504272 5.375 12 C6.72007446 29.11491301 10.24598842 45.08907123 18.5625 60.1875 C19.06523438 61.11852539 19.06523438 61.11852539 19.578125 62.06835938 C24.86346826 71.74172083 31.15310008 80.04855917 38.5625 88.1875 C39.13226563 88.83976562 39.70203125 89.49203125 40.2890625 90.1640625 C59.66936411 111.1345427 90.84223656 124.22258648 119.0625 125.40234375 C128.03732301 125.64199308 136.79662151 125.12020099 145.6875 123.875 C146.52732422 123.75745361 147.36714844 123.63990723 148.23242188 123.51879883 C176.20455398 119.17934733 200.56829794 103.70549066 219.5625 83.1875 C220.09617188 82.43726563 220.62984375 81.68703125 221.1796875 80.9140625 C222.5625 79.1875 222.5625 79.1875 225.1875 78.875 C227.5625 79.1875 227.5625 79.1875 228.5625 80.1875 C228.9609375 82.359375 228.9609375 82.359375 228.5625 85.1875 C226.83589934 87.47776754 225.18162632 89.40906483 223.1875 91.4375 C222.6394873 92.00887695 222.09147461 92.58025391 221.52685547 93.16894531 C219.88897668 94.85956694 218.23102802 96.52717113 216.5625 98.1875 C215.7271875 99.0228125 214.891875 99.858125 214.03125 100.71875 C200.23094696 113.78303688 181.59126133 123.45014787 163.5625 129.1875 C162.33144531 129.58066406 161.10039062 129.97382813 159.83203125 130.37890625 C148.70897966 133.47653149 137.46195351 133.61334556 126 133.6875 C125.22438721 133.69794342 124.44877441 133.70838684 123.6496582 133.71914673 C108.77961912 133.8752044 94.2664657 131.69387377 80.4375 126 C79.7057959 125.70593262 78.9740918 125.41186523 78.22021484 125.10888672 C50.16618948 113.46552965 26.92124273 92.96937064 12.5625 66.1875 C11.84719904 64.20437394 11.16469053 62.20784923 10.5625 60.1875 C9.9025 60.1875 9.2425 60.1875 8.5625 60.1875 C1.01025395 41.83306595 -5.02832508 21.25637026 -3.4375 1.1875 C-2.4375 0.1875 -2.4375 0.1875 0 0 Z " fill="#F1F5FE" transform="translate(29.4375,158.8125)"/>
<path d="M0 0 C0.74040527 0.00337372 1.48081055 0.00674744 2.24365234 0.01022339 C13.9205375 0.08705327 25.02221939 0.79676126 36.1875 4.4375 C36.91710937 4.67355957 37.64671875 4.90961914 38.3984375 5.15283203 C71.89040091 16.38683619 98.96851715 37.62349686 116 68.75 C117.36391847 71.83676286 117.42601556 74.09828215 117.1875 77.4375 C114.7125 77.9325 114.7125 77.9325 112.1875 78.4375 C111.57003906 77.33792969 110.95257813 76.23835938 110.31640625 75.10546875 C105.25363252 66.21614485 100.00384405 58.1149836 93.1875 50.4375 C92.16269531 49.19806641 92.16269531 49.19806641 91.1171875 47.93359375 C72.98869707 26.56070558 43.9152192 11.74112093 16.1875 8.4375 C11.33503051 8.20043466 6.50044957 8.14858651 1.64306641 8.17675781 C-0.57286503 8.18755048 -2.78799815 8.17676671 -5.00390625 8.1640625 C-6.43489759 8.16538316 -7.86588845 8.1679436 -9.296875 8.171875 C-11.21064941 8.17525879 -11.21064941 8.17525879 -13.16308594 8.17871094 C-16.96661707 8.44842883 -20.18777175 9.28494172 -23.8125 10.4375 C-25.6607809 10.82120011 -27.5150089 11.17781814 -29.375 11.5 C-30.31214844 11.66242187 -31.24929687 11.82484375 -32.21484375 11.9921875 C-33.07207031 12.13914062 -33.92929688 12.28609375 -34.8125 12.4375 C-36.00875 12.664375 -37.205 12.89125 -38.4375 13.125 C-39.22125 13.228125 -40.005 13.33125 -40.8125 13.4375 C-41.8125 12.4375 -41.8125 12.4375 -41.875 9.375 C-41.854375 8.405625 -41.83375 7.43625 -41.8125 6.4375 C-28.16742964 1.32059861 -14.44163029 -0.1287391 0 0 Z " fill="#F2F5FE" transform="translate(155.8125,32.5625)"/>
<path d="M0 0 C3 0.125 3 0.125 4 1.125 C5.25114448 10.37396681 3.39498402 18.98178112 1.25 27.9375 C0.87186157 29.52884766 0.87186157 29.52884766 0.48608398 31.15234375 C-6.40560264 58.59015316 -25.01717513 83.31374081 -49 98.125 C-54.50103393 101.15600544 -60.22258886 103.67461721 -66 106.125 C-67.00675781 106.5684375 -68.01351562 107.011875 -69.05078125 107.46875 C-73.6939359 109.44156229 -77.93364259 110.91390177 -83 111.125 C-85 109.125 -85 109.125 -85.0625 106.6875 C-84 104.125 -84 104.125 -80.9140625 102.63671875 C-77.74071159 101.37069618 -74.52717547 100.21988738 -71.30493164 99.08422852 C-60.39347354 95.20017193 -50.89570391 90.01973979 -41.9375 82.60546875 C-40 81.125 -40 81.125 -37.80859375 80.0390625 C-35.41257706 78.8281167 -35.16192159 77.51719151 -34 75.125 C-32.33616539 73.45550608 -30.66907688 71.78925296 -29 70.125 C-21.68293666 61.546827 -16.5911277 52.35343939 -12 42.125 C-11.5771875 41.19042969 -11.154375 40.25585938 -10.71875 39.29296875 C-6.16349055 28.06011307 -4.90300458 15.22715097 -4.2109375 3.21484375 C-3.87481777 -0.11523134 -3.43329408 0.14305392 0 0 Z " fill="#EEF3FE" transform="translate(263,158.875)"/>
<path d="M0 0 C2.25 0.5 2.25 0.5 3.25 1.5 C3.61551643 5.38361212 3.09970246 7.24413855 0.75 10.3125 C-14.67929623 32.41688184 -20.05373243 59.45820388 -15.75 86 C-13.46826386 98.46922688 -8.28698679 110.75159487 -1.60107422 121.47460938 C-0.57200991 123.92358169 -0.85365341 125.04828915 -1.75 127.5 C-4.225 127.995 -4.225 127.995 -6.75 128.5 C-8.44618666 125.85106168 -10.1067233 123.18207831 -11.75 120.5 C-12.19214844 119.77941406 -12.63429688 119.05882812 -13.08984375 118.31640625 C-15.83973322 113.62738499 -17.67484797 109.11345425 -19.07421875 103.859375 C-19.7107014 101.47817164 -19.7107014 101.47817164 -20.69213867 99.18310547 C-24.43571027 89.68810158 -25.2311673 80.35531671 -25.14111328 70.26464844 C-25.1250686 68.13410937 -25.141029 66.005481 -25.16015625 63.875 C-25.19353396 43.154476 -18.6072972 24.91222145 -7.75 7.5 C-7.27304687 6.69949219 -6.79609375 5.89898437 -6.3046875 5.07421875 C-3.4734829 0.63154234 -3.4734829 0.63154234 0 0 Z " fill="#EFF3FE" transform="translate(70.75,94.5)"/>
<path d="M0 0 C2.5625 0.1875 2.5625 0.1875 4.5625 2.1875 C6.03062806 8.58380205 5.74854398 15.12842664 5.74780273 21.65283203 C5.74997272 23.78568995 5.76811528 25.91801569 5.78710938 28.05078125 C5.82156467 36.26992437 5.28026569 44.12390128 3.5625 52.1875 C3.40579834 52.93499512 3.24909668 53.68249023 3.08764648 54.45263672 C1.28069507 62.61738016 -0.84146175 70.61689315 -4.4375 78.1875 C-4.7267334 78.80109375 -5.0159668 79.4146875 -5.31396484 80.046875 C-6.30931943 82.12793556 -7.33649307 84.19016554 -8.375 86.25 C-8.69887695 86.91845947 -9.02275391 87.58691895 -9.35644531 88.27563477 C-10.95324875 91.33564611 -11.82394348 92.96042175 -15.12890625 94.18359375 C-16.27166016 94.18552734 -16.27166016 94.18552734 -17.4375 94.1875 C-18.4375 93.1875 -18.4375 93.1875 -18.6953125 90.48046875 C-18.39426679 86.63529397 -17.32730756 84.76643044 -15.3125 81.5 C-10.61386539 73.14898544 -7.9095588 64.41573846 -5.4375 55.1875 C-5.25670898 54.51879883 -5.07591797 53.85009766 -4.88964844 53.16113281 C-0.75502682 37.14050152 -1.72362644 19.84464725 -3.31640625 3.50390625 C-3.35636719 2.73949219 -3.39632813 1.97507813 -3.4375 1.1875 C-2.4375 0.1875 -2.4375 0.1875 0 0 Z " fill="#F1F5FE" transform="translate(280.4375,135.8125)"/>
<path d="M0 0 C5.42500769 -0.44498318 7.51057169 1.54701218 11.54296875 4.890625 C12.35378906 5.58671875 13.16460937 6.2828125 14 7 C15.23169922 8.01320313 15.23169922 8.01320313 16.48828125 9.046875 C32.03373617 22.29556753 42.83373125 41.7478282 46 62 C46.11754019 64.74169336 46.18501964 67.4466991 46.1875 70.1875 C46.19974609 70.91130859 46.21199219 71.63511719 46.22460938 72.38085938 C46.22984064 74.25539471 46.12248796 76.1294635 46 78 C45.34 78.66 44.68 79.32 44 80 C40.46428571 79.46428571 40.46428571 79.46428571 39 78 C38.76289302 76.61887053 38.58026077 75.22829244 38.421875 73.8359375 C35.35697691 48.77219229 27.09161907 29.17253085 8 12 C6.49238222 10.91882984 4.97233489 9.85467184 3.4375 8.8125 C1.46484375 7.41796875 1.46484375 7.41796875 0 6 C-0.5 2.625 -0.5 2.625 0 0 Z " fill="#EDF2FE" transform="translate(201,86)"/>
<path d="M0 0 C14.19118505 0.12503247 28.92498515 3.25624299 41.75 9.3125 C42.40419922 9.61784668 43.05839844 9.92319336 43.73242188 10.23779297 C54.36459959 15.27807005 63.14352431 21.30473566 71.75 29.3125 C71.42 30.9625 71.09 32.6125 70.75 34.3125 C65.17857281 34.08509481 62.89285232 32.85622365 58.87109375 29.12109375 C43.06511808 15.64380694 21.99583648 9.05643394 1.51269531 8.6394043 C-4.05897497 8.50352503 -4.05897497 8.50352503 -6.25 6.3125 C-6.4375 3.75 -6.4375 3.75 -6.25 1.3125 C-4.52628669 -0.41121331 -2.36167981 0.0575281 0 0 Z " fill="#F1F5FE" transform="translate(159.25,51.6875)"/>
<path d="M0 0 C0.66644531 0.26554687 1.33289063 0.53109375 2.01953125 0.8046875 C2.33203125 3.0546875 2.33203125 3.0546875 2.01953125 5.8046875 C-1.18091007 8.63497102 -4.67827753 11.03342426 -8.16796875 13.4921875 C-13.80102689 17.5752095 -18.93117107 22.0254495 -23.98046875 26.8046875 C-24.76550781 27.536875 -25.55054687 28.2690625 -26.359375 29.0234375 C-30.97773466 33.46206405 -34.77654223 38.04330538 -38.33984375 43.36328125 C-40.74872811 46.94793059 -43.3623678 50.37142692 -45.98046875 53.8046875 C-47.30046875 53.4746875 -48.62046875 53.1446875 -49.98046875 52.8046875 C-50.49557556 46.91455308 -49.18878131 43.67426296 -45.66796875 39.1171875 C-45.219375 38.51559814 -44.77078125 37.91400879 -44.30859375 37.29418945 C-34.73128076 24.68417123 -23.56416151 13.86787785 -10.66796875 4.6796875 C-9.98581299 4.18138428 -9.30365723 3.68308105 -8.60083008 3.16967773 C-3.67298588 -0.2406937 -3.67298588 -0.2406937 0 0 Z " fill="#EDF2FE" transform="translate(93.98046875,49.1953125)"/>
<path d="M0 0 C2.10691054 1.03673376 4.18818114 2.12625986 6.25 3.25 C18.72738394 9.79711979 32.27197179 12.99968544 46.29296875 13.51757812 C50.00713326 13.70155076 51.83682395 13.89121596 55 16 C54.125 20.875 54.125 20.875 53 22 C33.15804534 23.71963607 10.20795186 17.66659337 -6 6 C-7 5 -7 5 -7.0625 2.4375 C-7.041875 1.633125 -7.02125 0.82875 -7 0 C-4.23016533 -1.38491734 -2.97077472 -0.82241786 0 0 Z " fill="#EDF2FE" transform="translate(105,251)"/>
<path d="M0 0 C4.47996183 -0.37333015 4.47996183 -0.37333015 6.703125 1.22265625 C18.14042398 14.82611034 31.48078481 36.49018993 30 55 C29.34 55.66 28.68 56.32 28 57 C25.06546739 56.63318342 24.13562754 56.13562754 22 54 C21.54296875 52.109375 21.54296875 52.109375 21.1875 49.75 C18.23675482 34.14681718 10.88777586 18.64643988 0.1171875 6.89453125 C-1 5 -1 5 -0.6796875 2.26171875 C-0.45539063 1.51535156 -0.23109375 0.76898438 0 0 Z " fill="#EAF0FE" transform="translate(235,90)"/>
<path d="M0 0 C0.495 2.475 0.495 2.475 1 5 C-2.70347809 7.20206806 -5.86193131 8.25269446 -10.125 8.9375 C-21.53505113 10.87244811 -36.52052777 15.52052777 -45 24 C-47.5 24.125 -47.5 24.125 -50 24 C-51 23 -51 23 -51.359375 20.65234375 C-51 18 -51 18 -49.015625 16.19140625 C-46.02499686 14.42997696 -43.03704884 12.68062457 -40 11 C-39.06285156 10.47019531 -38.12570313 9.94039062 -37.16015625 9.39453125 C-31.52905114 6.38973031 -25.81780314 4.11479524 -19.75 2.1875 C-19.10071533 1.98044434 -18.45143066 1.77338867 -17.7824707 1.56005859 C-5.61706194 -2.10639823 -5.61706194 -2.10639823 0 0 Z " fill="#EDF2FE" transform="translate(143,54)"/>
<path d="M0 0 C1.67542976 0.28604898 3.34385343 0.61781233 5 1 C6.09404518 4.33644983 5.89669485 6.7065788 5.1875 10.125 C5.01605469 10.99382812 4.84460937 11.86265625 4.66796875 12.7578125 C4 15 4 15 2 17 C-2.55555556 16.44444444 -2.55555556 16.44444444 -4 15 C-3.86916424 10.12888417 -3.63552199 3.63552199 0 0 Z " fill="#E8EFFE" transform="translate(32,126)"/>
<path d="M0 0 C3.54970117 0.19720562 5.03939242 1.03082885 7.875 3.25 C10 6 10 6 9.8125 8.8125 C9.544375 9.534375 9.27625 10.25625 9 11 C6.875 11.875 6.875 11.875 4 12 C1.48104675 10.3823236 -0.37597462 8.51406064 -2 6 C-1.94162863 3.37328813 -1.88893674 1.88893674 0 0 Z " fill="#E6EDFE" transform="translate(78,233)"/>
<path d="M0 0 C3.12826838 0.29100171 4.37427733 1.19380207 6.6875 3.25 C6.3575 4.9 6.0275 6.55 5.6875 8.25 C-0.3671875 8.4453125 -0.3671875 8.4453125 -2.3125 8.25 C-2.9725 7.59 -3.6325 6.93 -4.3125 6.25 C-3.59773714 0.38894456 -3.59773714 0.38894456 0 0 Z " fill="#E1EAFE" transform="translate(174.3125,72.75)"/>
<path d="M0 0 C0 3 0 3 -1.75 5.04296875 C-2.4925 5.75066406 -3.235 6.45835937 -4 7.1875 C-4.7425 7.90292969 -5.485 8.61835938 -6.25 9.35546875 C-6.8275 9.89816406 -7.405 10.44085938 -8 11 C-8 7.45459812 -7.40614728 6.93992636 -5.125 4.375 C-4.59132813 3.76398438 -4.05765625 3.15296875 -3.5078125 2.5234375 C-2 1 -2 1 0 0 Z " fill="#D2DFFE" transform="translate(130,191)"/>
<path d="M0 0 C0.99 0.33 1.98 0.66 3 1 C4.33363703 1.14403348 5.67218046 1.24590423 7.01171875 1.31640625 C8.14770508 1.37924805 8.14770508 1.37924805 9.30664062 1.44335938 C10.48516602 1.50233398 10.48516602 1.50233398 11.6875 1.5625 C12.88342773 1.62727539 12.88342773 1.62727539 14.10351562 1.69335938 C16.06881447 1.79927368 18.03438496 1.90012551 20 2 C20 2.33 20 2.66 20 3 C14.06 3.33 8.12 3.66 2 4 C1.34 2.68 0.68 1.36 0 0 Z " fill="#D5E2FE" transform="translate(119,165)"/>
<path d="M0 0 C0.66 0.33 1.32 0.66 2 1 C1.030625 1.825 0.06125 2.65 -0.9375 3.5 C-4.61012754 7.1121372 -4.82612422 9.95760232 -5 15 C-5.33 15 -5.66 15 -6 15 C-6.6271777 7.00348432 -6.6271777 7.00348432 -4.125 3 C-2 1 -2 1 0 0 Z " fill="#3A76FB" transform="translate(126,107)"/>
<path d="M0 0 C0.74636719 0.0825 1.49273437 0.165 2.26171875 0.25 C1.53984375 0.806875 0.81796875 1.36375 0.07421875 1.9375 C-2.71285424 4.22909334 -5.22469653 6.66459857 -7.73828125 9.25 C-8.39828125 8.92 -9.05828125 8.59 -9.73828125 8.25 C-8.69428379 6.90213008 -7.62726059 5.57207271 -6.55078125 4.25 C-5.95910156 3.5075 -5.36742187 2.765 -4.7578125 2 C-2.73828125 0.25 -2.73828125 0.25 0 0 Z " fill="#D6E2FE" transform="translate(254.73828125,237.75)"/>
<path d="M0 0 C-0.66 1.32 -1.32 2.64 -2 4 C-2.33 3.34 -2.66 2.68 -3 2 C-7.62 2 -12.24 2 -17 2 C-17 1.67 -17 1.34 -17 1 C-14.72926348 0.83201949 -12.45840707 0.66565887 -10.1875 0.5 C-8.29064453 0.36078125 -8.29064453 0.36078125 -6.35546875 0.21875 C-4.24021483 0.08085219 -2.11974408 0 0 0 Z " fill="#80A7FD" transform="translate(194,165)"/>
<path d="M0 0 C-0.58265625 0.26554688 -1.1653125 0.53109375 -1.765625 0.8046875 C-4.06174228 2.03302996 -5.80356018 3.40314939 -7.75 5.125 C-8.36359375 5.66382813 -8.9771875 6.20265625 -9.609375 6.7578125 C-10.06828125 7.16773438 -10.5271875 7.57765625 -11 8 C-9.04672006 1.97738686 -6.47971237 -0.53997603 0 0 Z " fill="#3875FC" transform="translate(106,140)"/>
<path d="M0 0 C-1.44077046 3.36179774 -3.24750021 5.59156268 -6 8 C-6.66 8 -7.32 8 -8 8 C-6.48291727 4.46014029 -4.24676932 0 0 0 Z " fill="#D6E3FE" transform="translate(123,101)"/>
<path d="M0 0 C-1.49097658 3.7952131 -3.75700849 5.61042731 -7 8 C-7 5 -7 5 -4.625 2.3125 C-2 0 -2 0 0 0 Z " fill="#D6E2FE" transform="translate(170,101)"/>
<path d="M0 0 C2.64 0.33 5.28 0.66 8 1 C7.01 1.495 7.01 1.495 6 2 C6.33 3.32 6.66 4.64 7 6 C5.83054208 5.19152271 4.66449539 4.37810888 3.5 3.5625 C2.8503125 3.11003906 2.200625 2.65757812 1.53125 2.19140625 C1.0259375 1.79824219 0.520625 1.40507812 0 1 C0 0.67 0 0.34 0 0 Z " fill="#C0D4FE" transform="translate(200,185)"/>
<path d="M0 0 C3.93846154 3.32307692 3.93846154 3.32307692 4.25 6.75 C4.1675 7.4925 4.085 8.235 4 9 C3.34 8.67 2.68 8.34 2 8 C2 7.34 2 6.68 2 6 C1.01 5.67 0.02 5.34 -1 5 C-0.34 4.67 0.32 4.34 1 4 C0.67 2.68 0.34 1.36 0 0 Z " fill="#C3D5FD" transform="translate(123,145)"/>
<path d="M0 0 C-1.49097658 3.7952131 -3.75700849 5.61042731 -7 8 C-6.44414399 4.1090079 -4.34122117 0 0 0 Z " fill="#DCE7FE" transform="translate(97,135)"/>
</svg>
